<?xml version="1.0" standalone="no"?>
<!DOCTYPE svg PUBLIC "-//W3C//DTD SVG 20010904//EN"
 "http://www.w3.org/TR/2001/REC-SVG-20010904/DTD/svg10.dtd">
<svg version="1.0" xmlns="http://www.w3.org/2000/svg"
 width="860.000000pt" height="860.000000pt" viewBox="0 0 860.000000 860.000000"
 preserveAspectRatio="xMidYMid meet">
<metadata>
Created by potrace 1.11, written by Peter Selinger 2001-2013
</metadata>
<g transform="translate(0.000000,860.000000) scale(0.100000,-0.100000)"
fill="#000000" stroke="none">
<path d="M0 4300 l0 -4290 4300 0 4300 0 0 4290 0 4290 -4300 0 -4300 0 0
-4290z m4266 1886 c24 -4 44 -3 48 2 3 6 23 6 48 2 24 -5 72 -8 108 -8 36 0
97 -5 135 -12 39 -7 88 -14 110 -16 21 -2 53 -8 70 -14 17 -6 51 -12 75 -15
89 -9 130 -17 136 -26 3 -5 20 -9 39 -9 19 0 36 -4 40 -9 3 -6 14 -9 24 -8 18
1 58 -9 152 -38 26 -8 55 -15 66 -15 11 0 38 -9 61 -20 22 -11 47 -20 55 -20
7 0 17 -4 22 -9 6 -5 39 -18 75 -30 36 -13 74 -28 85 -35 11 -6 40 -18 65 -26
25 -7 48 -15 53 -17 8 -5 -87 -115 -160 -188 -24 -23 -43 -47 -43 -53 0 -12
-67 -72 -81 -72 -5 0 -24 13 -42 30 -61 57 -102 88 -167 125 -36 21 -72 43
-80 50 -33 26 -200 105 -223 105 -7 0 -21 6 -32 14 -11 7 -65 28 -120 46 -55
18 -104 36 -110 40 -5 4 -30 11 -55 15 -122 19 -176 25 -307 34 -78 5 -147 12
-152 16 -6 3 -28 1 -50 -5 -22 -6 -69 -12 -104 -14 -35 -1 -68 -5 -73 -8 -5
-3 -49 -11 -99 -18 -49 -7 -108 -21 -130 -30 -52 -23 -143 -50 -165 -50 -10 0
-23 -7 -30 -15 -7 -8 -31 -20 -54 -26 -22 -6 -46 -15 -53 -21 -22 -18 -87 -48
-104 -48 -20 0 -143 -72 -179 -105 -14 -13 -44 -32 -67 -44 -23 -11 -56 -39
-74 -60 -17 -22 -38 -42 -45 -45 -21 -8 -324 281 -324 309 0 8 12 20 28 26 15
5 41 16 57 24 36 17 161 65 169 65 4 0 25 9 49 19 70 32 156 61 180 61 13 0
28 5 34 11 11 11 38 18 138 38 126 25 254 53 285 61 19 6 71 12 115 14 75 4
271 24 288 29 17 5 276 0 313 -7z m-1588 -566 c143 -141 161 -163 150 -178 -7
-9 -33 -39 -58 -65 -48 -52 -84 -101 -157 -212 -25 -38 -58 -89 -74 -112 -16
-23 -29 -48 -29 -57 0 -9 -4 -16 -10 -16 -5 0 -12 -12 -16 -27 -8 -36 -47
-113 -57 -113 -5 0 -5 -5 -1 -11 3 -6 2 -21 -3 -32 -6 -12 -15 -33 -22 -47 -6
-14 -15 -50 -20 -80 -16 -89 -22 -113 -37 -147 -8 -17 -14 -40 -14 -51 0 -12
-5 -33 -11 -49 -11 -30 -16 -79 -24 -237 -3 -54 -8 -102 -10 -107 -3 -4 -1
-27 4 -51 14 -59 31 -173 35 -233 6 -80 18 -139 31 -155 7 -8 16 -37 20 -65 4
-27 18 -71 31 -97 13 -26 24 -63 24 -83 0 -19 5 -35 10 -35 6 0 10 -7 10 -14
0 -8 14 -35 30 -59 17 -25 30 -52 30 -60 0 -9 5 -19 10 -22 6 -3 10 -15 10
-26 0 -10 4 -19 8 -19 7 0 43 -51 107 -149 6 -9 36 -48 68 -88 31 -40 57 -79
57 -87 0 -8 -18 -34 -40 -58 -22 -23 -55 -62 -72 -85 -17 -24 -35 -43 -39 -43
-5 0 -15 -12 -23 -28 -8 -15 -38 -52 -68 -82 -29 -31 -70 -76 -90 -100 l-37
-45 -73 39 c-99 52 -196 110 -224 135 -13 11 -35 23 -48 27 -13 3 -42 21 -64
40 -22 19 -60 42 -84 53 -25 10 -54 31 -65 45 -12 14 -25 26 -29 26 -10 0 -49
31 -133 103 -70 60 -72 62 -93 70 -10 3 -30 24 -45 46 -16 22 -32 40 -36 41
-15 0 -77 55 -77 68 0 6 -5 12 -11 12 -11 0 -179 164 -179 175 0 4 -14 18 -30
32 -17 13 -30 30 -30 37 0 10 -24 38 -69 81 -21 20 -71 83 -71 89 0 4 -18 26
-41 49 -125 130 -182 201 -319 400 -8 12 -20 25 -27 30 -26 16 -25 65 2 112
15 25 31 45 36 45 5 0 9 7 9 15 0 8 9 20 20 27 11 7 20 18 20 24 0 6 17 33 39
60 21 27 45 63 54 80 9 18 30 43 47 57 16 14 30 32 30 40 0 7 10 23 23 34 29
26 68 74 87 106 17 28 80 102 155 181 28 29 73 79 100 110 67 77 78 88 179
181 48 44 111 103 139 132 29 28 66 59 83 70 31 18 107 79 147 119 12 12 32
24 44 28 11 4 29 18 38 32 9 14 38 35 63 46 26 12 65 36 86 54 22 19 47 34 56
34 9 0 28 9 41 20 13 11 29 23 34 28 6 4 17 11 25 15 8 4 33 18 55 31 49 30
161 95 194 112 15 8 31 10 40 4 9 -4 89 -81 179 -170z m3237 168 c14 -6 25
-15 25 -20 0 -4 5 -8 11 -8 14 0 195 -87 229 -110 14 -9 41 -22 60 -30 19 -7
40 -18 45 -24 6 -7 28 -20 50 -30 22 -10 54 -29 72 -42 17 -13 35 -24 39 -24
9 0 245 -159 304 -205 25 -19 52 -38 60 -42 8 -3 31 -20 51 -37 54 -46 81 -67
143 -110 31 -22 56 -43 56 -48 0 -4 5 -8 12 -8 13 0 21 -7 121 -104 38 -36 71
-66 74 -66 2 0 34 -26 71 -58 37 -32 77 -64 88 -72 11 -8 43 -42 70 -75 28
-33 75 -85 105 -116 30 -31 88 -93 129 -139 41 -45 110 -119 153 -164 42 -44
80 -89 83 -99 8 -24 -42 -122 -83 -164 -18 -19 -33 -36 -33 -38 0 -3 -29 -34
-65 -69 -36 -35 -65 -68 -65 -73 0 -5 -18 -22 -39 -39 -22 -16 -46 -40 -53
-54 -17 -32 -69 -79 -88 -80 -8 0 -21 -9 -28 -20 -7 -11 -19 -20 -26 -20 -8 0
-18 -10 -21 -22 -10 -31 -52 -75 -97 -101 -21 -11 -38 -25 -38 -31 0 -6 -30
-40 -66 -76 -94 -92 -144 -144 -144 -150 0 -3 -18 -16 -40 -30 -22 -14 -40
-28 -40 -31 0 -4 -42 -38 -92 -75 -51 -38 -97 -74 -101 -81 -4 -7 -13 -13 -20
-13 -7 0 -25 -14 -41 -30 -16 -17 -37 -30 -47 -30 -10 0 -21 -9 -24 -20 -3
-11 -13 -20 -20 -20 -8 0 -34 -17 -59 -37 -55 -47 -248 -173 -264 -173 -6 0
-15 -6 -19 -14 -4 -8 -28 -23 -53 -34 -25 -11 -60 -32 -79 -46 -19 -14 -42
-26 -50 -26 -9 0 -30 -9 -47 -19 -22 -13 -36 -16 -48 -9 -16 9 -77 69 -126
124 -14 16 -70 71 -123 122 -53 52 -97 100 -97 108 0 22 38 89 66 115 14 13
35 44 47 69 12 25 35 65 52 90 16 25 36 59 44 75 7 17 19 43 27 58 8 16 14 34
14 40 0 7 11 34 25 61 14 27 25 57 25 67 0 10 5 21 10 24 6 3 10 22 10 42 0
19 6 49 14 66 8 18 17 55 20 82 3 28 14 118 25 200 16 113 20 177 15 260 -3
61 -8 113 -9 116 -2 3 -11 59 -20 126 -19 146 -51 274 -94 371 -18 41 -30 76
-28 79 3 2 -11 34 -30 71 -20 37 -45 85 -56 107 -12 22 -27 46 -34 53 -7 7
-13 19 -13 26 0 7 -9 21 -20 31 -11 10 -20 22 -20 26 0 11 -57 94 -75 109 -8
7 -15 18 -15 24 0 7 -34 46 -75 88 -41 42 -75 83 -75 90 0 8 10 23 21 34 12
10 29 31 38 46 9 14 57 69 106 121 50 53 98 107 108 121 20 28 42 32 82 14z
m-1576 -1144 c144 -66 142 -65 249 -146 79 -60 232 -211 232 -229 0 -15 -174
-162 -233 -196 -11 -6 -22 -15 -26 -20 -19 -26 -113 -94 -152 -109 -24 -9 -51
-23 -60 -31 -21 -18 -104 -29 -113 -14 -4 6 -17 11 -29 12 -12 1 11 7 52 15
56 10 89 23 130 51 75 51 76 51 120 135 74 139 65 239 -37 388 -66 97 -203
145 -329 116 -21 -5 -33 -4 -33 3 0 10 49 36 85 44 48 11 92 5 144 -19z m-358
-135 c-12 -11 -21 -25 -21 -32 0 -7 -14 -30 -32 -51 -29 -35 -33 -48 -39 -125
-6 -85 -6 -87 33 -166 40 -84 68 -121 112 -150 15 -10 24 -20 22 -22 -10 -10
-105 19 -122 38 -9 10 -23 19 -31 19 -28 0 -223 194 -223 222 0 42 53 97 261
266 31 26 55 39 57 32 2 -6 -5 -20 -17 -31z m364 -13 c45 -13 71 -42 90 -99
24 -73 23 -125 -2 -178 -23 -49 -115 -149 -136 -149 -8 0 -28 -7 -46 -16 -50
-25 -148 -4 -210 45 -34 26 -55 144 -35 199 7 20 13 42 14 49 0 20 49 86 81
111 36 29 39 12 3 -21 -31 -29 -47 -92 -34 -135 12 -44 65 -114 100 -135 40
-24 126 -26 172 -3 32 15 38 24 44 61 8 55 -16 130 -60 188 -42 56 -70 69
-133 64 -42 -3 -50 -1 -42 9 17 20 134 26 194 10z m-195 -569 c32 -15 33 -16
9 -16 -32 -1 -79 20 -79 37 0 8 5 9 18 3 9 -5 33 -16 52 -24z m1673 -1288 c87
-88 157 -166 154 -172 -2 -7 -13 -13 -25 -15 -11 -2 -26 -10 -32 -18 -7 -8
-21 -14 -31 -14 -11 0 -19 -5 -19 -10 0 -6 -12 -15 -27 -21 -16 -5 -45 -19
-66 -30 -21 -10 -44 -19 -51 -19 -7 0 -19 -7 -26 -15 -7 -8 -25 -15 -40 -15
-35 0 -88 -18 -122 -42 -14 -10 -38 -18 -51 -18 -14 0 -28 -4 -32 -9 -3 -5
-18 -12 -35 -16 -16 -3 -47 -15 -70 -26 -22 -11 -55 -22 -73 -25 -17 -3 -56
-15 -85 -25 -29 -10 -64 -19 -77 -19 -13 0 -27 -4 -30 -10 -3 -5 -24 -10 -45
-10 -21 0 -41 -4 -45 -10 -3 -5 -12 -7 -20 -3 -9 3 -26 -2 -40 -11 -14 -9 -38
-15 -54 -14 -16 1 -35 -3 -43 -9 -7 -6 -32 -11 -55 -11 -24 -1 -48 -4 -55 -8
-10 -6 -58 -14 -185 -28 -17 -2 -36 -7 -42 -10 -6 -4 -141 -9 -300 -11 -288
-4 -354 1 -526 36 -46 10 -65 11 -97 8 -92 -7 -483 65 -519 97 -8 8 -29 14
-45 14 -27 1 -84 18 -159 49 -16 7 -50 19 -75 28 -61 20 -106 40 -161 69 -26
13 -54 24 -62 24 -8 0 -20 6 -26 14 -9 10 -6 20 14 42 13 16 37 45 52 65 16
20 69 85 118 144 50 59 99 119 111 133 15 18 26 23 42 18 12 -4 22 -12 22 -17
0 -17 169 -159 190 -159 5 0 10 -4 10 -10 0 -9 111 -80 201 -127 24 -13 45
-26 48 -30 10 -14 72 -45 78 -40 3 3 23 -5 44 -19 22 -14 59 -28 82 -33 23 -4
62 -19 87 -33 25 -14 71 -28 103 -32 31 -4 57 -11 57 -16 0 -5 17 -9 38 -8 47
0 163 -22 179 -35 17 -12 367 -12 418 1 22 6 56 10 75 10 18 1 50 7 70 15 19
8 71 20 115 27 44 6 84 16 90 21 5 5 17 9 26 9 10 0 47 14 84 31 36 16 85 37
108 45 23 8 51 21 62 28 11 7 37 18 57 25 20 7 53 25 74 42 20 16 43 29 50 29
7 0 27 14 44 30 17 17 39 30 49 30 15 0 49 25 96 71 6 5 16 15 24 22 7 6 53
51 101 100 48 48 94 87 101 87 8 0 85 -72 172 -161z"/>
</g>
</svg>
