<?xml version="1.0" encoding="utf-8"?>
<!-- Generator: Adobe Illustrator 24.0.1, SVG Export Plug-In . SVG Version: 6.00 Build 0)  -->
<svg version="1.1" id="Layer_1" xmlns="http://www.w3.org/2000/svg" xmlns:xlink="http://www.w3.org/1999/xlink" x="0px" y="0px"
	 viewBox="0 0 107.4 90.8" style="enable-background:new 0 0 107.4 90.8;" xml:space="preserve">
<style type="text/css">
	.st0{fill:#F5F1F0;}
</style>
<g transform="translate(0.000000,196.000000) scale(0.100000,-0.100000)">
	<path class="st0" d="M177.5,1887c-13.1-1.4-25.6-7.6-29-14.5c-8.3-15.2-6.9-42.2,1.4-42.2c3.5,0,2.8-4.1-1.4-9
		c-4.1-5.5-5.5-11.1-3.5-13.8c2.1-2.1-3.5-5.5-12.4-8.3c-9-2.8-28.4-13.8-43.6-24.2c-37.3-25.6-45.6-59.5-49.1-199.2
		c-1.4-59.5-4.1-132.8-5.5-161.8c-1.4-31.1,0-53.9,4.1-53.9c3.5,0,4.1-3.5,1.4-8.3c-6.9-11.1-9.7-40.1-4.1-40.1
		c2.8,0,4.8-6.9,5.5-15.2c2.1-62.9,18.7-98.2,53.9-114.8c67.1-31.8,235.8-46.3,339.5-29c52.6,9,187.4,11.1,240.6,4.1
		c18-2.1,32.5-1.4,32.5,2.1c0,3.5,13.1,3.5,28.4,0.7c15.9-2.8,69.8-4.8,119.6-4.1c99.6,1.4,144.5,13.8,166,47
		c9.7,15.2,32.5,108.6,28.4,116.2c-2.1,4.1-9,118.2-13.8,242c-6.9,168.7-16.6,211.6-54.6,234.4c-74,44.9-256.5,63.6-439.8,45.6
		c-96.8-9.7-179.8-11.8-179.8-4.8c0,4.1,4.1,8.3,8.3,9.7c6.9,2.8,6.9,6.9,0.7,21.4c-6.2,13.8-13.8,18.7-27.7,18.7
		c-11.1,0-47,1.4-81.6,2.1C228,1888.3,189.3,1888.3,177.5,1887z M348.3,1851c0-21.4-12.4-27.7-60.9-27.7c-16.6,0-38.7-4.8-49.1-10.4
		c-11.1-5.5-21.4-7.6-24.2-5.5c-2.1,2.8-4.1-0.7-4.1-6.9c0-13.8,20.7-15.9,33.2-3.5c6.2,6.2,8.3,6.2,8.3-0.7c0-4.8,2.8-6.9,6.2-4.8
		c9,5.5,86.4,12.4,170.1,14.5c110.6,3.5,219.2,9,275.2,15.2c64.3,6.2,113.4,5.5,124.5-3.5c4.1-3.5,29-8.3,54.6-10.4
		c50.5-4.1,71.2-12.4,90.6-35.3c11.8-12.4,12.4-13.1,9-1.4c-3.5,10.4-2.8,11.8,5.5,4.8c13.8-11.8,25.6-67.1,29-134.2
		c6.2-126.5,8.3-350.6,3.5-350.6c-2.8,0-10.4-12.4-17.3-27.7c-15.2-34.6-47.7-67.8-71.9-73.3c-10.4-2.1-25.6-6.9-33.9-11.1
		c-9-4.8-45.6-5.5-100.3-2.8c-207.4,10.4-344.4,12.4-344.4,5.5c0-4.1-13.8-6.2-36-4.1c-20.1,2.1-49.1,0-64.3-3.5l-27.7-7.6l31.1,3.5
		c17.3,1.4,36,0,41.5-3.5c17.3-11.1-123.8-8.3-166.7,2.8c-21.4,5.5-55.3,12.4-76.1,15.2c-35.3,4.8-65.7,18-76.8,33.9
		c-2.8,3.5-5.5,18.7-5.5,32.5s-2.8,27.7-6.9,29.7c-3.5,2.1-6.9,11.8-6.9,20.7c0,9,3.5,18.7,6.9,20.7c9.7,6.2,8.3,17.3-1.4,15.9
		c-6.2-1.4-8.3,6.9-7.6,25.6c6.9,147.3,6.9,256.5,0.7,264.2c-4.8,6.2-4.8,9,0.7,9c4.1,0,7.6,9.7,7.6,20.7c0,29,21.4,103.7,28.4,99.6
		c3.5-2.1,12.4,0,20.7,4.8c12.4,6.2,13.1,9,5.5,14.5c-6.9,4.8-5.5,5.5,5.5,2.1c20.1-5.5,35.3,2.8,22.1,11.1
		c-7.6,4.8-6.9,6.2,2.8,6.2c6.2,0,11.8-2.8,11.8-5.5c0-3.5,9.7-4.8,20.7-2.8c11.8,1.4,20.7,6.9,20.7,12.4c0,6.2-7.6,9.7-20.7,9.7
		c-13.1,0-20.7,3.5-20.7,9.7c0,5.5-2.1,14.5-4.1,20.1s2.1,15.2,8.3,22.1c10.4,9.7,20.7,11.1,69.1,7.6c31.8-2.1,58.8-1.4,60.9,1.4
		c2.1,3.5,14.5,4.1,27.7,2.8C345.5,1870.4,348.3,1867.6,348.3,1851z M604.2,1830.2c0-3.5-10.4-6.2-22.1-6.2l-22.8,0.7l20.7,5.5
		c11.8,2.8,21.4,5.5,22.8,6.2C603.5,1836.5,604.2,1834.4,604.2,1830.2z M500.4,1823.3c-13.8-9-22.8-9-17.3,0
		c2.1,4.1,9.7,6.9,15.9,6.9C509.4,1830.2,509.4,1828.9,500.4,1823.3z M55.8,1683.7c-2.1-5.5-4.1-3.5-4.1,4.1
		c-0.7,7.6,1.4,11.8,3.5,9C57.2,1694.7,57.9,1688.5,55.8,1683.7z M1023.9,1268.8c-2.1-5.5-4.1-3.5-4.1,4.1c-0.7,7.6,1.4,11.8,3.5,9
		C1025.3,1279.8,1026,1273.6,1023.9,1268.8z M1012.1,1218.3c-7.6-23.5-24.2-38-42.9-38c-4.8,0-0.7,6.9,9.7,14.5
		c10.4,7.6,22.1,24.9,27,39.4c4.8,13.8,9.7,21.4,11.1,17.3C1019.1,1246.6,1016.3,1231.4,1012.1,1218.3z"/>
	<path class="st0" d="M228,1736.2c-36.6-9.7-47-15.2-42.2-24.2c2.1-3.5,0-4.1-5.5-2.1c-19.4,6.9-27.7-15.9-22.8-64.3
		s13.8-67.1,29.7-61.5c4.8,2.1,9,1.4,9-1.4c0-6.9,29-5.5,40.1,1.4c4.8,2.8,8.3,2.8,8.3-0.7c0-10.4,95.4-6.2,106.5,4.8
		c12.4,11.8,22.1,80.2,15.2,107.2c-8.3,31.8-16.6,11.8-15.9-38c0.7-27.7-2.8-51.9-6.9-56c-7.6-7.6-108.6-9.7-120.3-2.1
		c-2.8,1.4-7.6-0.7-9.7-4.1c-3.5-4.8-8.3-3.5-13.8,4.8c-7.6,10.4-10.4,10.4-20.1,2.8c-9.7-8.3-11.1-8.3-7.6,0
		c2.1,5.5,4.8,27,6.2,47.7c3.5,50.5,2.8,48.4,14.5,48.4c5.5,0,10.4,2.8,10.4,6.9c0,3.5,4.8,4.8,10.4,2.8c5.5-2.8,11.8,0.7,14.5,6.9
		c2.1,6.2,6.9,9.7,9.7,7.6c13.1-8.3,109.9-9,116.9-0.7C365.6,1735.5,267.4,1745.9,228,1736.2z"/>
	<path class="st0" d="M775.6,1680.2c-15.9-4.1-15.9-24.2,0-38.7c18-16.6,32.5-14.5,41.5,5.5c6.2,13.1,5.5,18.7-2.8,27.7
		C803.3,1685,797.1,1685.7,775.6,1680.2z M788.8,1656c-2.1-5.5-4.1-3.5-4.1,4.1c-0.7,7.6,1.4,11.8,3.5,9
		C790.2,1667.1,790.9,1660.8,788.8,1656z"/>
	<path class="st0" d="M510.1,1644.2c-60.9-27.7-103-118.2-92-198.5c6.9-51.9,33.2-104.4,71.2-143.8c18-18,34.6-31.8,36.6-29.7
		c2.1,2.1,11.8,0.7,21.4-2.8c9.7-4.1,38.7-6.9,63.6-7.6c38.7-0.7,51.2,2.8,89.2,22.8c24.2,13.1,47.7,29.7,51.9,37.3
		s10.4,15.9,13.1,18c3.5,2.1,6.9,10.4,8.3,17.3c1.4,6.9,2.8,13.1,4.1,13.1c0.7,0,6.2,27.7,6.9,41.5c1.4,15.2-9,60.9-19.4,85.1
		c-27.7,66.4-81.6,121.7-139.7,144.5C577.2,1660.1,546.8,1660.8,510.1,1644.2z M603.5,1631.1c2.1-4.1,16.6-9,31.1-12.4
		c27-4.8,40.8-16.6,92.7-78.1c11.8-14.5,23.5-35.3,24.9-46.3s5.5-27.7,9-37.3c19.4-49.8-10.4-122.4-62.2-154.9
		c-60.9-37.3-162.5-31.8-205.4,11.8c-28.4,29-56.7,89.2-60.9,131.4c-7.6,78.8,40.8,170.8,99.6,188.1
		C562.7,1642.9,596.5,1641.5,603.5,1631.1z"/>
</g>
</svg>
