<?xml version="1.0" encoding="utf-8"?>
<!-- Generator: Adobe Illustrator 24.0.1, SVG Export Plug-In . SVG Version: 6.00 Build 0)  -->
<svg version="1.1" id="Layer_1" xmlns="http://www.w3.org/2000/svg" xmlns:xlink="http://www.w3.org/1999/xlink" x="0px" y="0px"
	 viewBox="0 0 107.4 90.8" style="enable-background:new 0 0 107.4 90.8;" xml:space="preserve">
<style type="text/css">
	.st0{fill:#F5F1F0;}
</style>
<path class="st0" d="M89.7,88.7H18.1c-7.4,0-13.5-6.1-13.5-13.5V30.9c0-7.4,6.1-13.5,13.5-13.5h10.6l1.4-3.7
	C32.9,5.7,37.6,1.6,44,1.6l19,0c6.4,0,11.4,4.3,14.1,12.2l1.3,3.6h11.3c7.4,0,13.5,6.1,13.5,13.5v44.3
	C103.3,82.7,97.2,88.7,89.7,88.7z M18.1,25.4c-3,0-5.5,2.5-5.5,5.5v44.3c0,3,2.5,5.5,5.5,5.5h71.6c3,0,5.5-2.5,5.5-5.5V30.9
	c0-3-2.5-5.5-5.5-5.5H72.8l-3.2-9c-1.1-3.1-3.1-6.8-6.6-6.8l-19,0c-2.1,0-4.3,0.8-6.4,6.8l-0.1,0.1l-3.4,8.9H18.1z"/>
<path class="st0" d="M53.6,75c-13.3,0-24.1-10.8-24.1-24.1c0-13.3,10.8-24.1,24.1-24.1s24.1,10.8,24.1,24.1
	C77.8,64.2,66.9,75,53.6,75z M53.6,34.8c-8.9,0-16.1,7.2-16.1,16.1c0,8.9,7.2,16.1,16.1,16.1s16.1-7.2,16.1-16.1
	C69.8,42,62.5,34.8,53.6,34.8z"/>
</svg>
